<mxfile host="Electron" modified="2023-10-11T04:29:59.432Z" agent="Mozilla/5.0 (Windows NT 10.0; Win64; x64) AppleWebKit/537.36 (KHTML, like Gecko) draw.io/21.8.2 Chrome/114.0.5735.289 Electron/25.8.1 Safari/537.36" etag="cOsQ59HDIpwbMGCsGPnd" version="21.8.2" type="device">
  <diagram id="C5RBs43oDa-KdzZeNtuy" name="Page-1">
    <mxGraphModel dx="1120" dy="532" grid="1" gridSize="10" guides="1" tooltips="1" connect="1" arrows="1" fold="1" page="1" pageScale="1" pageWidth="827" pageHeight="1169" math="0" shadow="0">
      <root>
        <mxCell id="WIyWlLk6GJQsqaUBKTNV-0" />
        <mxCell id="WIyWlLk6GJQsqaUBKTNV-1" parent="WIyWlLk6GJQsqaUBKTNV-0" />
        <mxCell id="dwBxp2xcDdF_orQ1wNBt-2" value="" style="edgeStyle=orthogonalEdgeStyle;rounded=0;orthogonalLoop=1;jettySize=auto;html=1;" edge="1" parent="WIyWlLk6GJQsqaUBKTNV-1" source="dwBxp2xcDdF_orQ1wNBt-0" target="dwBxp2xcDdF_orQ1wNBt-1">
          <mxGeometry relative="1" as="geometry" />
        </mxCell>
        <mxCell id="dwBxp2xcDdF_orQ1wNBt-0" value="Start" style="ellipse;whiteSpace=wrap;html=1;" vertex="1" parent="WIyWlLk6GJQsqaUBKTNV-1">
          <mxGeometry x="354" y="90" width="120" height="80" as="geometry" />
        </mxCell>
        <mxCell id="dwBxp2xcDdF_orQ1wNBt-4" value="" style="edgeStyle=orthogonalEdgeStyle;rounded=0;orthogonalLoop=1;jettySize=auto;html=1;" edge="1" parent="WIyWlLk6GJQsqaUBKTNV-1" source="dwBxp2xcDdF_orQ1wNBt-1" target="dwBxp2xcDdF_orQ1wNBt-3">
          <mxGeometry relative="1" as="geometry" />
        </mxCell>
        <mxCell id="dwBxp2xcDdF_orQ1wNBt-1" value="String no_rek, pin, input_no_rek, input_pin, status&lt;br&gt;int jumlahLogin, maxLogin" style="shape=hexagon;perimeter=hexagonPerimeter2;whiteSpace=wrap;html=1;fixedSize=1;" vertex="1" parent="WIyWlLk6GJQsqaUBKTNV-1">
          <mxGeometry x="319" y="190" width="190" height="90" as="geometry" />
        </mxCell>
        <mxCell id="dwBxp2xcDdF_orQ1wNBt-8" value="" style="edgeStyle=orthogonalEdgeStyle;rounded=0;orthogonalLoop=1;jettySize=auto;html=1;" edge="1" parent="WIyWlLk6GJQsqaUBKTNV-1" source="dwBxp2xcDdF_orQ1wNBt-3" target="dwBxp2xcDdF_orQ1wNBt-7">
          <mxGeometry relative="1" as="geometry" />
        </mxCell>
        <mxCell id="dwBxp2xcDdF_orQ1wNBt-3" value="status = aman&lt;br&gt;jumlahLogin = 0&lt;br&gt;maxLogin =3" style="rounded=0;whiteSpace=wrap;html=1;" vertex="1" parent="WIyWlLk6GJQsqaUBKTNV-1">
          <mxGeometry x="329" y="300" width="170" height="70" as="geometry" />
        </mxCell>
        <mxCell id="dwBxp2xcDdF_orQ1wNBt-23" value="" style="edgeStyle=orthogonalEdgeStyle;rounded=0;orthogonalLoop=1;jettySize=auto;html=1;" edge="1" parent="WIyWlLk6GJQsqaUBKTNV-1" source="dwBxp2xcDdF_orQ1wNBt-7" target="dwBxp2xcDdF_orQ1wNBt-22">
          <mxGeometry relative="1" as="geometry" />
        </mxCell>
        <mxCell id="dwBxp2xcDdF_orQ1wNBt-7" value="" style="ellipse;whiteSpace=wrap;html=1;aspect=fixed;" vertex="1" parent="WIyWlLk6GJQsqaUBKTNV-1">
          <mxGeometry x="394" y="390" width="40" height="40" as="geometry" />
        </mxCell>
        <mxCell id="dwBxp2xcDdF_orQ1wNBt-26" value="" style="edgeStyle=orthogonalEdgeStyle;rounded=0;orthogonalLoop=1;jettySize=auto;html=1;" edge="1" parent="WIyWlLk6GJQsqaUBKTNV-1" source="dwBxp2xcDdF_orQ1wNBt-22" target="dwBxp2xcDdF_orQ1wNBt-25">
          <mxGeometry relative="1" as="geometry" />
        </mxCell>
        <mxCell id="dwBxp2xcDdF_orQ1wNBt-27" value="True" style="edgeLabel;html=1;align=center;verticalAlign=middle;resizable=0;points=[];" vertex="1" connectable="0" parent="dwBxp2xcDdF_orQ1wNBt-26">
          <mxGeometry x="-0.5357" y="1" relative="1" as="geometry">
            <mxPoint y="1" as="offset" />
          </mxGeometry>
        </mxCell>
        <mxCell id="dwBxp2xcDdF_orQ1wNBt-44" value="" style="edgeStyle=orthogonalEdgeStyle;rounded=0;orthogonalLoop=1;jettySize=auto;html=1;" edge="1" parent="WIyWlLk6GJQsqaUBKTNV-1" source="dwBxp2xcDdF_orQ1wNBt-22" target="dwBxp2xcDdF_orQ1wNBt-42">
          <mxGeometry relative="1" as="geometry" />
        </mxCell>
        <mxCell id="dwBxp2xcDdF_orQ1wNBt-46" value="False" style="edgeLabel;html=1;align=center;verticalAlign=middle;resizable=0;points=[];" vertex="1" connectable="0" parent="dwBxp2xcDdF_orQ1wNBt-44">
          <mxGeometry x="-0.0986" y="1" relative="1" as="geometry">
            <mxPoint as="offset" />
          </mxGeometry>
        </mxCell>
        <mxCell id="dwBxp2xcDdF_orQ1wNBt-22" value="jumlahLogin &amp;lt;= maxLogin" style="rhombus;whiteSpace=wrap;html=1;" vertex="1" parent="WIyWlLk6GJQsqaUBKTNV-1">
          <mxGeometry x="302" y="680" width="224" height="75" as="geometry" />
        </mxCell>
        <mxCell id="dwBxp2xcDdF_orQ1wNBt-29" value="" style="edgeStyle=orthogonalEdgeStyle;rounded=0;orthogonalLoop=1;jettySize=auto;html=1;" edge="1" parent="WIyWlLk6GJQsqaUBKTNV-1" source="dwBxp2xcDdF_orQ1wNBt-25" target="dwBxp2xcDdF_orQ1wNBt-28">
          <mxGeometry relative="1" as="geometry" />
        </mxCell>
        <mxCell id="dwBxp2xcDdF_orQ1wNBt-25" value="input_no_rek, input_pin" style="shape=parallelogram;perimeter=parallelogramPerimeter;whiteSpace=wrap;html=1;fixedSize=1;" vertex="1" parent="WIyWlLk6GJQsqaUBKTNV-1">
          <mxGeometry x="560" y="685" width="154" height="65" as="geometry" />
        </mxCell>
        <mxCell id="dwBxp2xcDdF_orQ1wNBt-31" value="" style="edgeStyle=orthogonalEdgeStyle;rounded=0;orthogonalLoop=1;jettySize=auto;html=1;" edge="1" parent="WIyWlLk6GJQsqaUBKTNV-1" source="dwBxp2xcDdF_orQ1wNBt-28" target="dwBxp2xcDdF_orQ1wNBt-30">
          <mxGeometry relative="1" as="geometry" />
        </mxCell>
        <mxCell id="dwBxp2xcDdF_orQ1wNBt-36" value="False" style="edgeLabel;html=1;align=center;verticalAlign=middle;resizable=0;points=[];" vertex="1" connectable="0" parent="dwBxp2xcDdF_orQ1wNBt-31">
          <mxGeometry x="-0.2" y="1" relative="1" as="geometry">
            <mxPoint as="offset" />
          </mxGeometry>
        </mxCell>
        <mxCell id="dwBxp2xcDdF_orQ1wNBt-33" value="" style="edgeStyle=orthogonalEdgeStyle;rounded=0;orthogonalLoop=1;jettySize=auto;html=1;" edge="1" parent="WIyWlLk6GJQsqaUBKTNV-1" source="dwBxp2xcDdF_orQ1wNBt-28" target="dwBxp2xcDdF_orQ1wNBt-32">
          <mxGeometry relative="1" as="geometry" />
        </mxCell>
        <mxCell id="dwBxp2xcDdF_orQ1wNBt-35" value="True" style="edgeLabel;html=1;align=center;verticalAlign=middle;resizable=0;points=[];" vertex="1" connectable="0" parent="dwBxp2xcDdF_orQ1wNBt-33">
          <mxGeometry x="-0.36" y="1" relative="1" as="geometry">
            <mxPoint as="offset" />
          </mxGeometry>
        </mxCell>
        <mxCell id="dwBxp2xcDdF_orQ1wNBt-37" value="" style="edgeStyle=orthogonalEdgeStyle;rounded=0;orthogonalLoop=1;jettySize=auto;html=1;" edge="1" parent="WIyWlLk6GJQsqaUBKTNV-1" source="dwBxp2xcDdF_orQ1wNBt-28" target="dwBxp2xcDdF_orQ1wNBt-30">
          <mxGeometry relative="1" as="geometry" />
        </mxCell>
        <mxCell id="dwBxp2xcDdF_orQ1wNBt-28" value="input_no_rek = no_rek &amp;amp; input_pin = pin" style="rhombus;whiteSpace=wrap;html=1;" vertex="1" parent="WIyWlLk6GJQsqaUBKTNV-1">
          <mxGeometry x="517" y="580" width="240" height="80" as="geometry" />
        </mxCell>
        <mxCell id="dwBxp2xcDdF_orQ1wNBt-41" value="" style="edgeStyle=orthogonalEdgeStyle;rounded=0;orthogonalLoop=1;jettySize=auto;html=1;" edge="1" parent="WIyWlLk6GJQsqaUBKTNV-1" source="dwBxp2xcDdF_orQ1wNBt-30" target="dwBxp2xcDdF_orQ1wNBt-38">
          <mxGeometry relative="1" as="geometry" />
        </mxCell>
        <mxCell id="dwBxp2xcDdF_orQ1wNBt-30" value="Gagal login, cek nomor rekening dan pin anda" style="shape=parallelogram;perimeter=parallelogramPerimeter;whiteSpace=wrap;html=1;fixedSize=1;" vertex="1" parent="WIyWlLk6GJQsqaUBKTNV-1">
          <mxGeometry x="560" y="472.5" width="159" height="60" as="geometry" />
        </mxCell>
        <mxCell id="dwBxp2xcDdF_orQ1wNBt-51" value="" style="edgeStyle=orthogonalEdgeStyle;rounded=0;orthogonalLoop=1;jettySize=auto;html=1;" edge="1" parent="WIyWlLk6GJQsqaUBKTNV-1" source="dwBxp2xcDdF_orQ1wNBt-32" target="dwBxp2xcDdF_orQ1wNBt-50">
          <mxGeometry relative="1" as="geometry" />
        </mxCell>
        <mxCell id="dwBxp2xcDdF_orQ1wNBt-32" value="Login berhasil" style="shape=parallelogram;perimeter=parallelogramPerimeter;whiteSpace=wrap;html=1;fixedSize=1;" vertex="1" parent="WIyWlLk6GJQsqaUBKTNV-1">
          <mxGeometry x="770" y="470" width="144" height="60" as="geometry" />
        </mxCell>
        <mxCell id="dwBxp2xcDdF_orQ1wNBt-40" value="" style="edgeStyle=orthogonalEdgeStyle;rounded=0;orthogonalLoop=1;jettySize=auto;html=1;" edge="1" parent="WIyWlLk6GJQsqaUBKTNV-1" source="dwBxp2xcDdF_orQ1wNBt-38" target="dwBxp2xcDdF_orQ1wNBt-7">
          <mxGeometry relative="1" as="geometry" />
        </mxCell>
        <mxCell id="dwBxp2xcDdF_orQ1wNBt-38" value="jumlahLogin ++" style="rounded=0;whiteSpace=wrap;html=1;" vertex="1" parent="WIyWlLk6GJQsqaUBKTNV-1">
          <mxGeometry x="574.5" y="390" width="130" height="40" as="geometry" />
        </mxCell>
        <mxCell id="dwBxp2xcDdF_orQ1wNBt-48" value="" style="edgeStyle=orthogonalEdgeStyle;rounded=0;orthogonalLoop=1;jettySize=auto;html=1;" edge="1" parent="WIyWlLk6GJQsqaUBKTNV-1" source="dwBxp2xcDdF_orQ1wNBt-42" target="dwBxp2xcDdF_orQ1wNBt-47">
          <mxGeometry relative="1" as="geometry" />
        </mxCell>
        <mxCell id="dwBxp2xcDdF_orQ1wNBt-42" value="status = diblokir" style="rounded=0;whiteSpace=wrap;html=1;" vertex="1" parent="WIyWlLk6GJQsqaUBKTNV-1">
          <mxGeometry x="355" y="790" width="117" height="50" as="geometry" />
        </mxCell>
        <mxCell id="dwBxp2xcDdF_orQ1wNBt-47" value="End" style="ellipse;whiteSpace=wrap;html=1;" vertex="1" parent="WIyWlLk6GJQsqaUBKTNV-1">
          <mxGeometry x="354" y="870" width="120" height="80" as="geometry" />
        </mxCell>
        <mxCell id="dwBxp2xcDdF_orQ1wNBt-50" value="break" style="rounded=0;whiteSpace=wrap;html=1;" vertex="1" parent="WIyWlLk6GJQsqaUBKTNV-1">
          <mxGeometry x="777" y="390" width="130" height="40" as="geometry" />
        </mxCell>
        <mxCell id="dwBxp2xcDdF_orQ1wNBt-54" value="" style="endArrow=classic;html=1;rounded=0;exitX=1;exitY=0.5;exitDx=0;exitDy=0;entryX=1;entryY=0.5;entryDx=0;entryDy=0;" edge="1" parent="WIyWlLk6GJQsqaUBKTNV-1" source="dwBxp2xcDdF_orQ1wNBt-50" target="dwBxp2xcDdF_orQ1wNBt-47">
          <mxGeometry width="50" height="50" relative="1" as="geometry">
            <mxPoint x="900" y="460" as="sourcePoint" />
            <mxPoint x="950" y="410" as="targetPoint" />
            <Array as="points">
              <mxPoint x="1000" y="410" />
              <mxPoint x="1000" y="910" />
            </Array>
          </mxGeometry>
        </mxCell>
      </root>
    </mxGraphModel>
  </diagram>
</mxfile>
